<!DOCTYPE svg PUBLIC "-//W3C//DTD SVG 1.1//EN" "http://www.w3.org/Graphics/SVG/1.1/DTD/svg11.dtd">
<!-- Uploaded to: SVG Repo, www.svgrepo.com, Transformed by: SVG Repo Mixer Tools -->
<svg width="800px" height="800px" viewBox="-0.74 0 20 20" xmlns="http://www.w3.org/2000/svg" fill="#000000">
<g id="SVGRepo_bgCarrier" stroke-width="0"/>
<g id="SVGRepo_tracerCarrier" stroke-linecap="round" stroke-linejoin="round"/>
<g id="SVGRepo_iconCarrier"> <g id="tooth" transform="translate(-2.738 -2)"> <path id="secondary" fill="#fff" d="M16,3a3.84,3.84,0,0,0-2.32.74,2.88,2.88,0,0,1-3.36,0A3.84,3.84,0,0,0,8,3C5,3,3,5,4,10S5,21,8,21s2-6.76,4-6.76S13,21,16,21s3-6,4-11S19,3,16,3Z"/> <path id="primary" d="M16,3a3.84,3.84,0,0,0-2.32.74,2.88,2.88,0,0,1-3.36,0A3.84,3.84,0,0,0,8,3C5,3,3,5,4,10S5,21,8,21s2-6.76,4-6.76S13,21,16,21s3-6,4-11S19,3,16,3Z" fill="none" stroke="#fff000000" stroke-linecap="round" stroke-linejoin="round" stroke-width="2"/> </g> </g>
</svg>