<!DOCTYPE svg PUBLIC "-//W3C//DTD SVG 1.1//EN" "http://www.w3.org/Graphics/SVG/1.1/DTD/svg11.dtd">
<!-- Uploaded to: SVG Repo, www.svgrepo.com, Transformed by: SVG Repo Mixer Tools -->
<svg version="1.1" id="Layer_1" xmlns="http://www.w3.org/2000/svg" xmlns:xlink="http://www.w3.org/1999/xlink" viewBox="0 0 433.611 433.611" xml:space="preserve" width="800px" height="800px" fill="#000000">
<g id="SVGRepo_bgCarrier" stroke-width="0"/>
<g id="SVGRepo_tracerCarrier" stroke-linecap="round" stroke-linejoin="round"/>
<g id="SVGRepo_iconCarrier"> <g> <path style="fill:#29A34A;" d="M395.805,95.5v310.23c0,15.4-12.49,27.88-27.89,27.88H65.685c-15.4,0-27.88-12.48-27.88-27.88V95.5 c0-15.4,12.48-27.89,27.88-27.89h302.23C383.315,67.61,395.805,80.1,395.805,95.5"/> <path style="fill:#E6E6E6;" d="M329.049,239.805c8.837-11.163,14.132-25.251,14.132-40.562c0-36.108-29.376-65.484-65.485-65.484 h-49.894v-8.516c0-6.075-4.925-11-11-11c-6.076,0-11,4.925-11,11v8.516h-49.895c-36.109,0-65.484,29.376-65.484,65.484 c0,15.311,5.295,29.398,14.132,40.562c-3.624,7.833-5.662,16.543-5.662,25.725c0,15.822,6.01,30.265,15.864,41.172 c-3.378,7.237-5.276,15.298-5.276,23.797c0,31.146,25.339,56.485,56.484,56.485c6.075,0,11-4.925,11-11c0-6.076-4.925-11-11-11 c-19.015,0-34.485-15.47-34.485-34.485c0-3.463,0.519-6.806,1.473-9.962c8.262,4.135,17.572,6.477,27.423,6.477 c6.076,0,11-4.924,11-11c0-6.075-4.924-11-11-11c-5.032,0-9.842-0.956-14.271-2.68c5.619-3.974,12.469-6.319,19.86-6.319H205.8 v53.228c0,6.075,4.924,11,11,11c6.075,0,11-4.925,11-11v-53.228h39.836c7.391,0,14.24,2.345,19.859,6.319 c-4.43,1.724-9.24,2.68-14.272,2.68c-6.075,0-11,4.925-11,11c0,6.076,4.925,11,11,11c9.851,0,19.161-2.342,27.423-6.478 c0.955,3.156,1.473,6.5,1.473,9.963c0,19.015-15.469,34.485-34.484,34.485c-6.076,0-11,4.924-11,11c0,6.075,4.924,11,11,11 c31.146,0,56.484-25.339,56.484-56.485c0-8.5-1.898-16.561-5.276-23.798c9.853-10.907,15.864-25.35,15.864-41.171 C334.71,256.348,332.673,247.638,329.049,239.805 M277.696,155.76c23.978,0,43.485,19.507,43.485,43.484 c0,7.865-2.11,15.242-5.776,21.613c-11.019-10.409-25.861-16.811-42.179-16.811h-45.424V155.76H277.696 M155.907,155.76h49.895 v48.286h-45.424c-16.318,0-31.161,6.402-42.179,16.811c-3.667-6.372-5.776-13.749-5.776-21.613 C112.423,175.266,131.93,155.76,155.907,155.76 M165.967,274.015c-14.472,0-27.687,5.476-37.692,14.459 c-4.639-6.472-7.381-14.392-7.381-22.944c0-3.51,0.466-6.912,1.33-10.154c9.849,5.932,21.373,9.352,33.684,9.352 c6.076,0,11-4.925,11-11c0-6.075-4.924-11-11-11c-8.152,0-15.784-2.259-22.311-6.177c7.043-6.515,16.453-10.505,26.782-10.505 h45.424v47.97L165.967,274.015 M227.802,274.015v-47.97h45.424c10.328,0,19.738,3.99,26.782,10.505 c-6.527,3.918-14.159,6.177-22.311,6.177c-6.075,0-11,4.925-11,11c0,6.075,4.925,11,11,11c12.311,0,23.836-3.42,33.684-9.352 c0.864,3.242,1.33,6.644,1.33,10.154c0,8.552-2.742,16.472-7.381,22.944c-10.006-8.982-23.219-14.459-37.691-14.459 L227.802,274.015"/> <path style="fill:#E6E6E6;" d="M395.805,46.61V95.5h-358V46.61c0-10.28,8.331-18.609,18.6-18.609h320.79 C387.475,28,395.805,36.33,395.805,46.61"/> <rect x="195.802" style="fill:#FF5069;" width="42" height="54"/> <path style="fill:#FFFFFF;" d="M377.195,28h-86.27H377.195c10.279,0,18.61,8.33,18.61,18.609V95.5l0,0v310.23l0,0V46.61 C395.805,36.33,387.475,28,377.195,28"/> <path style="fill:#29A34A;" d="M205.802,269.183l-1.706,4.833h1.706V269.183 M273.226,226.045h-45.424v47.97h39.836 c14.472,0,27.686,5.476,37.691,14.459c4.639-6.472,7.381-14.392,7.381-22.944c0-3.51-0.467-6.912-1.33-10.154 c-9.848,5.932-21.372,9.352-33.684,9.352c-6.075,0-11-4.925-11-11c0-6.075,4.925-11,11-11c8.151,0,15.784-2.259,22.311-6.177 C292.964,230.036,283.554,226.045,273.226,226.045 M277.696,155.76H245.83l-17.04,48.286h44.436 c16.319,0,31.161,6.402,42.179,16.811c3.666-6.372,5.776-13.749,5.776-21.613C321.181,175.266,301.674,155.76,277.696,155.76 M395.805,95.5h-128.71l-13.502,38.26h24.103c36.109,0,65.485,29.376,65.485,65.484c0,15.311-5.295,29.398-14.132,40.562 c3.624,7.833,5.661,16.543,5.661,25.725c0,15.822-6.01,30.264-15.864,41.171c3.378,7.237,5.276,15.298,5.276,23.798 c0,31.146-25.338,56.485-56.484,56.485c-6.076,0-11-4.925-11-11c0-6.076,4.924-11,11-11c19.015,0,34.484-15.47,34.484-34.485 c0-3.463-0.519-6.807-1.473-9.963c-8.262,4.136-17.572,6.478-27.423,6.478c-6.075,0-11-4.924-11-11c0-6.075,4.925-11,11-11 c5.032,0,9.842-0.956,14.272-2.68c-5.619-3.974-12.469-6.319-19.859-6.319h-39.836v53.228c0,6.075-4.925,11-11,11 c-6.076,0-11-4.925-11-11v-53.228h-9.469l-24.86,70.444c3.285,1.903,5.494,5.455,5.494,9.525c0,6.075-4.925,11-11,11 c-0.578,0-1.154-0.009-1.728-0.026l-16.464,46.652h220.14c15.4,0,27.89-12.48,27.89-27.88L395.805,95.5L395.805,95.5"/> <path style="fill:#EEEEEE;" d="M171.473,366.459l-7.234,20.499c0.574,0.017,1.15,0.026,1.728,0.026c6.075,0,11-4.925,11-11 C176.967,371.915,174.758,368.362,171.473,366.459 M227.802,274.015v-47.97h45.424c10.328,0,19.738,3.99,26.782,10.505 c-6.527,3.918-14.159,6.177-22.311,6.177c-6.075,0-11,4.925-11,11c0,6.075,4.925,11,11,11c12.311,0,23.836-3.42,33.684-9.352 c0.864,3.242,1.33,6.644,1.33,10.154c0,8.552-2.742,16.472-7.381,22.944c-10.006-8.982-23.219-14.459-37.691-14.459 L227.802,274.015 M277.696,133.76h-24.103l-7.764,22h31.867c23.978,0,43.485,19.507,43.485,43.484 c0,7.865-2.11,15.242-5.776,21.613c-11.019-10.409-25.861-16.811-42.179-16.811H228.79l-22.987,65.137v4.833h-1.706l-7.764,22 h9.469v53.228c0,6.075,4.924,11,11,11c6.075,0,11-4.925,11-11v-53.228h39.836c7.391,0,14.24,2.345,19.859,6.319 c-4.43,1.724-9.24,2.68-14.272,2.68c-6.075,0-11,4.925-11,11c0,6.076,4.925,11,11,11c9.851,0,19.161-2.342,27.423-6.478 c0.955,3.156,1.473,6.5,1.473,9.963c0,19.015-15.469,34.485-34.484,34.485c-6.076,0-11,4.924-11,11c0,6.075,4.924,11,11,11 c31.146,0,56.484-25.339,56.484-56.485c0-8.5-1.898-16.561-5.276-23.798c9.853-10.907,15.864-25.35,15.864-41.171 c0-9.182-2.037-17.892-5.661-25.725c8.837-11.163,14.132-25.251,14.132-40.562C343.181,163.135,313.805,133.76,277.696,133.76"/> <path style="fill:#EEEEEE;" d="M377.195,28h-86.27l-13.98,39.61l-9.85,27.89h128.71V46.61C395.805,36.33,387.475,28,377.195,28"/> </g> </g>
</svg>